<?xml version="1.0" encoding="UTF-8"?>
<svg width="14px" height="10px" viewBox="0 0 14 10" version="1.1" xmlns="http://www.w3.org/2000/svg" xmlns:xlink="http://www.w3.org/1999/xlink">
    <!-- Generator: Sketch 48.2 (47327) - http://www.bohemiancoding.com/sketch -->
    <title>icons/black/check</title>
    <desc>Created with Sketch.</desc>
    <defs>
        <polygon id="path-1" points="0.00150390625 0.00183601888 12.8333333 0.00183601888 12.8333333 9.14725911 0.00150390625 9.14725911"></polygon>
    </defs>
    <g id="Homepage" stroke="none" stroke-width="1" fill="none" fill-rule="evenodd" transform="translate(-574.000000, -2003.000000)" opacity="0.600000024">
        <g id="icons/black/check" transform="translate(574.000000, 2001.000000)">
            <g id="check" transform="translate(0.583333, 2.333333)">
                <mask id="mask-2" fill="white">
                    <use xlink:href="#path-1"></use>
                </mask>
                <g id="Clip-2"></g>
                <path d="M4.20482161,9.14876302 C4.07215202,9.14876302 3.93948242,9.09815658 3.83824447,8.99691862 L0.151844401,5.31049349 C-0.0506064453,5.10804264 -0.0506064453,4.7798151 0.151844401,4.57736426 C0.354270182,4.37491341 0.682522786,4.37491341 0.884948568,4.57736426 L4.20479655,7.89721224 L11.9483597,0.153674154 C12.1508356,-0.0487766927 12.4790632,-0.0487766927 12.681514,0.153674154 C12.8839398,0.356125 12.8839398,0.684352539 12.681514,0.88677832 L4.57139876,8.99689355 C4.47018587,9.09815658 4.33749121,9.14876302 4.20482161,9.14876302" id="Fill-1" fill="#09213A" mask="url(#mask-2)"></path>
            </g>
        </g>
    </g>
</svg>