<?xml version="1.0" encoding="UTF-8"?>
<svg width="1440px" height="610px" viewBox="0 0 1440 610" version="1.1" xmlns="http://www.w3.org/2000/svg" xmlns:xlink="http://www.w3.org/1999/xlink">
    <!-- Generator: Sketch 48.2 (47327) - http://www.bohemiancoding.com/sketch -->
    <title>Group</title>
    <desc>Created with Sketch.</desc>
    <defs>
        <rect id="path-1" x="0" y="0" width="1440" height="610"></rect>
    </defs>
    <g id="Homepage" stroke="none" stroke-width="1" fill="none" fill-rule="evenodd" transform="translate(0.000000, -90.000000)">
        <g id="Group" transform="translate(0.000000, 90.000000)">
            <mask id="mask-2" fill="white">
                <use xlink:href="#path-1"></use>
            </mask>
            <use id="Mask" fill="#FFFFFF" xlink:href="#path-1"></use>
            <g mask="url(#mask-2)" fill="#237AD7" fill-opacity="0.05">
                <g transform="translate(-103.000000, -90.000000)">
                    <path d="M657.699531,-1.42108547e-14 L711.199531,-7.10542736e-15 C739.918338,-1.23809866e-14 763.199531,23.281193 763.199531,52 L763.199531,105.5 C763.199531,129.634584 743.634584,149.199531 719.5,149.199531 C707.910164,149.199531 696.795017,144.595486 688.599765,136.400235 L626.799296,74.5997654 C609.733568,57.5340371 609.733568,29.8650246 626.799296,12.7992962 C634.994548,4.60404449 646.109695,-1.20818363e-14 657.699531,-1.42108547e-14 Z" id="Rectangle-4" transform="translate(688.599765, 74.599765) rotate(90.000000) translate(-688.599765, -74.599765) "></path>
                    <path d="M812,659.088312 L834.911688,659.088312 C842.643675,659.088312 848.911688,665.356325 848.911688,673.088312 L848.911688,696 C848.911688,703.731986 842.643675,710 834.911688,710 C831.198657,710 827.637703,708.525004 825.012193,705.899495 L802.100505,682.987807 C796.633165,677.520467 796.633165,668.656157 802.100505,663.188817 C804.726014,660.563308 808.286969,659.088312 812,659.088312 Z" id="Rectangle-4-Copy-5" transform="translate(823.455844, 684.544156) rotate(180.000000) translate(-823.455844, -684.544156) "></path>
                    <path d="M1516.08831,80 L1539,80 C1546.73199,80 1553,86.2680135 1553,94 L1553,116.911688 C1553,124.643675 1546.73199,130.911688 1539,130.911688 C1535.28697,130.911688 1531.72601,129.436692 1529.10051,126.811183 L1506.18882,103.899495 C1500.72148,98.4321549 1500.72148,89.5678451 1506.18882,84.1005051 C1508.81433,81.4749958 1512.37528,80 1516.08831,80 Z" id="Rectangle-4-Copy-6"></path>
                    <path d="M59.6995308,60 L113.199531,60 C141.918338,60 165.199531,83.281193 165.199531,112 L165.199531,165.5 C165.199531,189.634584 145.634584,209.199531 121.5,209.199531 C109.910164,209.199531 98.7950172,204.595486 90.5997654,196.400235 L28.7992962,134.599765 C11.7335679,117.534037 11.7335679,89.8650246 28.7992962,72.7992962 C36.994548,64.6040445 48.1096947,60 59.6995308,60 Z" id="Rectangle-4-Copy-3"></path>
                    <path d="M1548.69953,651 L1602.19953,651 C1630.91834,651 1654.19953,674.281193 1654.19953,703 L1654.19953,756.5 C1654.19953,780.634584 1634.63458,800.199531 1610.5,800.199531 C1598.91016,800.199531 1587.79502,795.595486 1579.59977,787.400235 L1517.7993,725.599765 C1500.73357,708.534037 1500.73357,680.865025 1517.7993,663.799296 C1525.99455,655.604044 1537.10969,651 1548.69953,651 Z" id="Rectangle-4-Copy-4"></path>
                    <path d="M43.6995308,651 L97.1995308,651 C125.918338,651 149.199531,674.281193 149.199531,703 L149.199531,756.5 C149.199531,780.634584 129.634584,800.199531 105.5,800.199531 C93.9101638,800.199531 82.7950172,795.595486 74.5997654,787.400235 L12.7992962,725.599765 C-4.26643208,708.534037 -4.26643208,680.865025 12.7992962,663.799296 C20.994548,655.604044 32.1096947,651 43.6995308,651 Z" id="Rectangle-4-Copy" transform="translate(74.599765, 725.599765) scale(-1, -1) translate(-74.599765, -725.599765) "></path>
                </g>
            </g>
        </g>
    </g>
</svg>