<?xml version="1.0" encoding="UTF-8"?>
<svg width="30px" height="27px" viewBox="0 0 30 27" version="1.1" xmlns="http://www.w3.org/2000/svg" xmlns:xlink="http://www.w3.org/1999/xlink">
    <!-- Generator: Sketch 48.2 (47327) - http://www.bohemiancoding.com/sketch -->
    <title>desktop-app</title>
    <desc>Created with Sketch.</desc>
    <defs>
        <polygon id="path-1" points="0.0034375 0.0501875 29.333276 0.0501875 29.333276 26.1788542 0.0034375 26.1788542"></polygon>
    </defs>
    <g id="Parking-Management" stroke="none" stroke-width="1" fill="none" fill-rule="evenodd" transform="translate(-852.000000, -1113.000000)">
        <g id="icons/desktop" transform="translate(851.000000, 1111.000000)">
            <g id="monitor" transform="translate(1.333333, 2.666667)">
                <g id="Group-3">
                    <mask id="mask-2" fill="white">
                        <use xlink:href="#path-1"></use>
                    </mask>
                    <g id="Clip-2"></g>
                    <path d="M27.5625052,20.0468698 L1.77082812,20.0468698 C1.54011458,20.0468698 1.35242708,19.859125 1.35242708,19.6284115 L1.35242708,16.0744375 L27.9809062,16.0744375 L27.9809062,19.6284115 C27.9809062,19.859125 27.7932188,20.0468698 27.5625052,20.0468698 Z M17.3722083,22.6877865 C17.3722083,23.494625 17.6477813,24.2378125 18.10875,24.8299792 L11.2245833,24.8299792 C11.6855521,24.2378125 11.961125,23.494625 11.961125,22.6877865 L11.961125,21.3992396 L17.3722083,21.3992396 L17.3722083,22.6877865 Z M1.77082812,1.40261458 L27.5624479,1.40261458 C27.7931615,1.40261458 27.9809062,1.59030208 27.9809062,1.82101562 L27.9809062,14.7219531 L1.35242708,14.7219531 L1.35242708,1.82101562 C1.35242708,1.59030208 1.54011458,1.40261458 1.77082812,1.40261458 Z M27.5625052,0.0501875 L1.77082812,0.0501875 C0.79440625,0.0501875 0,0.84459375 0,1.82101562 L0,19.6283542 C0,20.604776 0.79440625,21.3991823 1.77082812,21.3991823 L10.6086979,21.3991823 L10.6086979,22.6876719 C10.6086979,23.8688542 9.64763021,24.8299219 8.46644792,24.8299219 L6.51870313,24.8299219 C6.14533333,24.8299219 5.84254687,25.132651 5.84254687,25.5060781 C5.84254687,25.8795625 6.14533333,26.1822917 6.51870313,26.1822917 L22.8145156,26.1822917 C23.1879427,26.1822917 23.4907292,25.8795625 23.4907292,25.5060781 C23.4907292,25.132651 23.1879427,24.8299219 22.8145156,24.8299219 L20.8667135,24.8299219 C19.6855313,24.8299219 18.7245208,23.8688542 18.7245208,22.6876719 L18.7245208,21.3992396 L27.5623333,21.3992396 C28.5388125,21.3992396 29.333276,20.6048333 29.333276,19.6284115 L29.333276,1.82101562 C29.3333333,0.84459375 28.5389271,0.0501875 27.5625052,0.0501875 Z" id="Fill-1" fill="#09213A" mask="url(#mask-2)"></path>
                </g>
                <path d="M14.6668385,17.3310729 C15.0698854,17.3310729 15.3966198,17.6578073 15.3966198,18.0608542 C15.3966198,18.463901 15.0698854,18.7905781 14.6668385,18.7905781 C14.2637917,18.7905781 13.9370573,18.463901 13.9370573,18.0608542 C13.9370573,17.6578073 14.2637917,17.3310729 14.6668385,17.3310729" id="Fill-4" fill="#09213A"></path>
                <path d="M10.5690521,10.6422708 C10.7421302,10.6422708 10.915151,10.5762708 11.0472083,10.4442135 L15.8261354,5.66528646 C16.0901927,5.40122917 16.0901927,4.97308854 15.8261354,4.70897396 C15.5620208,4.44491667 15.1339375,4.44491667 14.8697656,4.70897396 L10.0908385,9.48790104 C9.82678125,9.75195833 9.82678125,10.180099 10.0908385,10.4442135 C10.2229531,10.5762708 10.3959167,10.6422708 10.5690521,10.6422708" id="Fill-5" fill="#09213A"></path>
                <path d="M15.7985781,10.3383958 C15.9306354,10.4704531 16.1037135,10.5364531 16.2767344,10.5364531 C16.4497552,10.5364531 16.6228333,10.4704531 16.7548906,10.3383958 L18.6586354,8.43470833 C18.9226927,8.17065104 18.9226927,7.74245312 18.6586354,7.47839583 C18.3946927,7.21433854 17.9666094,7.21433854 17.7023802,7.47833854 L15.7985781,9.38202604 C15.5345208,9.64619792 15.5345208,10.0743385 15.7985781,10.3383958" id="Fill-6" fill="#09213A"></path>
            </g>
        </g>
    </g>
</svg>