<?xml version="1.0" encoding="UTF-8"?>
<svg width="18px" height="17px" viewBox="0 0 18 17" version="1.1" xmlns="http://www.w3.org/2000/svg" xmlns:xlink="http://www.w3.org/1999/xlink">
    <!-- Generator: Sketch 48.2 (47327) - http://www.bohemiancoding.com/sketch -->
    <title>linkedin-logo</title>
    <desc>Created with Sketch.</desc>
    <defs></defs>
    <g id="Homepage" stroke="none" stroke-width="1" fill="none" fill-rule="evenodd" transform="translate(-1276.000000, -6116.000000)">
        <path d="M1294,6126.42223 L1294,6133 L1290.1415,6133 L1290.1415,6126.86329 C1290.1415,6125.32194 1289.584,6124.26984 1288.1875,6124.26984 C1287.121,6124.26984 1286.48725,6124.97824 1286.208,6125.66441 C1286.1065,6125.90952 1286.08,6126.25026 1286.08,6126.59396 L1286.08,6133 L1282.22075,6133 C1282.22075,6133 1282.2725,6122.60569 1282.22075,6121.52961 L1286.08,6121.52961 L1286.08,6123.15497 C1286.07225,6123.16757 1286.0615,6123.18017 1286.05475,6123.19253 L1286.08,6123.19253 L1286.08,6123.15497 C1286.59275,6122.37515 1287.50775,6121.26029 1289.5575,6121.26029 C1292.09675,6121.26029 1294,6122.89923 1294,6126.42223 Z M1278.1835,6116 C1276.86325,6116 1276,6116.85616 1276,6117.98166 C1276,6119.08293 1276.83875,6119.96406 1278.13275,6119.96406 L1278.15825,6119.96406 C1279.504,6119.96406 1280.34075,6119.08293 1280.34075,6117.98166 C1280.3155,6116.85616 1279.504,6116 1278.1835,6116 Z M1276.2295,6133 L1280.087,6133 L1280.087,6121.52961 L1276.2295,6121.52961 L1276.2295,6133 Z" id="linkedin-logo" fill="#007BB5"></path>
    </g>
</svg>