<?xml version="1.0" encoding="UTF-8"?>
<svg width="17px" height="30px" viewBox="0 0 17 30" version="1.1" xmlns="http://www.w3.org/2000/svg" xmlns:xlink="http://www.w3.org/1999/xlink">
    <!-- Generator: Sketch 48.2 (47327) - http://www.bohemiancoding.com/sketch -->
    <title>mobile-app</title>
    <desc>Created with Sketch.</desc>
    <defs>
        <polygon id="path-1" points="0.00428223844 0.0285482563 18.2577972 0.0285482563 18.2577972 31.3130446 0.00428223844 31.3130446"></polygon>
        <polygon id="path-3" points="0.00428223844 0.000927818329 18.2577972 0.000927818329 18.2577972 28.0033869 0.00428223844 28.0033869"></polygon>
    </defs>
    <g id="Parking-Management" stroke="none" stroke-width="1" fill="none" fill-rule="evenodd" transform="translate(-858.000000, -1270.000000)">
        <g id="icons/mobile" transform="translate(851.000000, 1269.000000)">
            <g id="technology" transform="translate(6.666667, 0.000000)">
                <path d="M7.67696999,3.31065693 C7.40818816,3.31065693 7.19214923,3.52890835 7.19214923,3.79797567 C7.19214923,4.06697161 7.41239903,4.2852944 7.68196594,4.2852944 C7.95131873,4.2852944 8.16899919,4.06697161 8.16899919,3.79797567 C8.16899919,3.52890835 7.95131873,3.31065693 7.68196594,3.31065693 L7.67696999,3.31065693 Z" id="Fill-1" stroke="#09213A" stroke-width="0.3" fill="#09213A"></path>
                <g id="Group-5">
                    <mask id="mask-2" fill="white">
                        <use xlink:href="#path-1"></use>
                    </mask>
                    <g id="Clip-3"></g>
                    <path d="M8.15451095,27.672026 C8.15451095,28.2092328 8.59137064,28.6463779 9.12893431,28.6463779 C9.6664266,28.6463779 10.1032863,28.2095182 10.1032863,27.672026 C10.1032863,27.1344623 9.6664266,26.6976026 9.12893431,26.6976026 C8.59165612,26.6976026 8.15451095,27.1344623 8.15451095,27.672026 Z" id="Fill-2" stroke="#09213A" stroke-width="0.3" fill="#09213A" mask="url(#mask-2)"></path>
                    <path d="M1.82065207,23.7741898 C2.0894339,23.7741898 2.30768532,23.5559384 2.30768532,23.286871 L2.30768532,3.79797567 C2.30768532,3.08762368 3.05907543,2.33623358 3.76942741,2.33623358 L14.4883698,2.33623358 C15.1987218,2.33623358 15.9501119,3.08762368 15.9501119,3.79797567 C15.9501119,4.06697161 16.1683633,4.2852944 16.4371452,4.2852944 C16.7062125,4.2852944 16.9244639,4.06697161 16.9244639,3.79797567 C16.9244639,2.54592052 15.740425,1.36188159 14.4883698,1.36188159 L3.76942741,1.36188159 C2.51737226,1.36188159 1.33333333,2.54592052 1.33333333,3.79797567 L1.33333333,23.286871 C1.33333333,23.5559384 1.55165612,23.7741898 1.82065207,23.7741898 Z" id="Fill-4" stroke="#09213A" stroke-width="0.3" fill="#09213A" mask="url(#mask-2)"></path>
                </g>
                <path d="M9.61625304,3.31065693 C9.34718573,3.31065693 9.12893431,3.52890835 9.12893431,3.79797567 C9.12893431,4.06697161 9.34718573,4.2852944 9.61625304,4.2852944 L11.564957,4.2852944 C11.8340243,4.2852944 12.0523471,4.06697161 12.0523471,3.79797567 C12.0523471,3.52890835 11.8340243,3.31065693 11.564957,3.31065693 L9.61625304,3.31065693 Z" id="Fill-6" stroke="#09213A" stroke-width="0.3" fill="#09213A"></path>
                <path d="M13.5140178,10.1318345 C13.638631,10.1318345 13.7635296,10.084159 13.8583098,9.98909327 C14.0490122,9.7986764 14.0490122,9.49064071 13.8583098,9.30022384 L12.8839578,8.32580049 C12.693541,8.13538362 12.3854339,8.13538362 12.1950884,8.32580049 C12.0046715,8.51621736 12.0046715,8.82432441 12.1950884,9.01474128 L13.1694404,9.98909327 C13.2645061,10.084159 13.3891192,10.1318345 13.5140178,10.1318345 Z" id="Fill-7" stroke="#09213A" stroke-width="0.3" fill="#09213A"></path>
                <g id="Group-11" transform="translate(0.000000, 3.925385)">
                    <mask id="mask-4" fill="white">
                        <use xlink:href="#path-3"></use>
                    </mask>
                    <g id="Clip-9"></g>
                    <path d="M9.27167559,4.40041525 C9.08125872,4.59083212 9.08125872,4.89893917 9.27167559,5.08935604 L13.1694404,8.98712084 C13.2645061,9.08218654 13.3894047,9.12986212 13.5140178,9.12986212 C13.638631,9.12986212 13.7635296,9.08218654 13.8583098,8.98712084 C14.0490122,8.79670397 14.0490122,8.48859692 13.8583098,8.29818005 L9.96054501,4.40041525 C9.77012814,4.2097129 9.46230657,4.2097129 9.27167559,4.40041525 Z" id="Fill-8" stroke="#09213A" stroke-width="0.3" fill="#09213A" mask="url(#mask-4)"></path>
                    <path d="M16.4374307,1.33426115 L3.76942741,1.33426115 C3.50064558,1.33426115 3.28239416,1.55258394 3.28239416,1.82157989 C3.28239416,2.09036172 3.50064558,2.30868451 3.76942741,2.30868451 L15.9501119,2.30868451 L15.9501119,24.233674 C15.9501119,24.9443114 15.1987218,25.6953447 14.4883698,25.6953447 L3.76942741,25.6953447 C3.05907543,25.6953447 2.30768532,24.9443114 2.30768532,24.233674 L2.30768532,21.7975799 L14.4883698,21.7975799 C14.7574371,21.7975799 14.9754745,21.5792571 14.9754745,21.3105466 C14.9754745,21.0414793 14.7574371,20.8232279 14.4883698,20.8232279 L1.82065207,20.8232279 C1.55165612,20.8232279 1.33333333,21.0414793 1.33333333,21.3105466 L1.33333333,24.233674 C1.33333333,25.4860146 2.51737226,26.6700535 3.76942741,26.6700535 L14.4883698,26.6700535 C15.7407105,26.6700535 16.9244639,25.4860146 16.9244639,24.233674 L16.9244639,1.82157989 C16.9244639,1.55258394 16.7062125,1.33426115 16.4374307,1.33426115 Z" id="Fill-10" stroke="#09213A" stroke-width="0.3" fill="#09213A" mask="url(#mask-4)"></path>
                </g>
            </g>
        </g>
    </g>
</svg>