<?xml version="1.0" encoding="UTF-8"?>
<svg width="30px" height="27px" viewBox="0 0 30 27" version="1.1" xmlns="http://www.w3.org/2000/svg" xmlns:xlink="http://www.w3.org/1999/xlink">
    <!-- Generator: Sketch 48.2 (47327) - http://www.bohemiancoding.com/sketch -->
    <title>reporting</title>
    <desc>Created with Sketch.</desc>
    <defs>
        <polygon id="path-1" points="0.0034375 0.0462916667 29.3333333 0.0462916667 29.3333333 1.42885417 0.0034375 1.42885417"></polygon>
    </defs>
    <g id="Parking-Management" stroke="none" stroke-width="1" fill="none" fill-rule="evenodd" transform="translate(-852.000000, -1429.000000)">
        <g id="icons/reports" transform="translate(851.000000, 1427.000000)">
            <g id="bar-chart" transform="translate(1.333333, 2.666667)">
                <g id="Group-3" transform="translate(0.000000, 24.348958)">
                    <mask id="mask-2" fill="white">
                        <use xlink:href="#path-1"></use>
                    </mask>
                    <g id="Clip-2"></g>
                    <path d="M28.6403333,0.0462916667 L0.693,0.0462916667 C0.310234375,0.0462916667 0,0.356583333 0,0.739291667 C0,1.122 0.310234375,1.43229167 0.693,1.43229167 L28.6403333,1.43229167 C29.0229844,1.43229167 29.3333333,1.122 29.3333333,0.739291667 C29.3333333,0.356640625 29.023099,0.0462916667 28.6403333,0.0462916667" id="Fill-1" fill="#09213A" mask="url(#mask-2)"></path>
                </g>
                <path d="M3.19240625,20.5120781 L6.67327604,20.5120781 L6.67327604,8.63139063 L3.19240625,8.63139063 L3.19240625,20.5120781 Z M8.05933333,20.5120781 L11.5402031,20.5120781 L11.5402031,15.2150625 L8.05933333,15.2150625 L8.05933333,20.5120781 Z M12.9261458,20.5120781 L16.4070729,20.5120781 L16.4070729,1.40908854 L12.9261458,1.40908854 L12.9261458,20.5120781 Z M17.7931302,20.5120781 L21.274,20.5120781 L21.274,10.0853385 L17.7931302,10.0853385 L17.7931302,20.5120781 Z M22.66,9.39233854 L22.66,4.68061458 L26.1408698,4.68061458 L26.1408698,20.5120781 L22.66,20.5120781 L22.66,9.39233854 Z M2.49940625,21.8980781 L26.8336979,21.8980781 C27.2164635,21.8980781 27.5266979,21.5877292 27.5266979,21.2050781 L27.5266979,3.98767188 C27.5266979,3.60496354 27.2164635,3.29467188 26.8336979,3.29467188 L21.9668854,3.29467188 C21.5841771,3.29467188 21.2738854,3.60496354 21.2738854,3.98767188 L21.2738854,8.69933854 L17.7930156,8.69933854 L17.7930156,0.716088542 C17.7930156,0.3334375 17.4826667,0.0230885417 17.1000156,0.0230885417 L12.2330885,0.0230885417 C11.8504375,0.0230885417 11.5400885,0.3334375 11.5400885,0.716088542 L11.5400885,13.8290625 L8.05927604,13.8290625 L8.05927604,7.93839062 C8.05927604,7.55568229 7.74892708,7.24544792 7.36627604,7.24544792 L2.49940625,7.24544792 C2.11669792,7.24544792 1.80646354,7.55568229 1.80646354,7.93839062 L1.80646354,21.2050781 C1.80646354,21.5877865 2.11675521,21.8980781 2.49940625,21.8980781 Z" id="Fill-4" fill="#09213A"></path>
            </g>
        </g>
    </g>
</svg>