<?xml version="1.0" encoding="UTF-8"?>
<svg width="270px" height="120px" viewBox="0 0 270 120" version="1.1" xmlns="http://www.w3.org/2000/svg" xmlns:xlink="http://www.w3.org/1999/xlink">
    <!-- Generator: Sketch 48.2 (47327) - http://www.bohemiancoding.com/sketch -->
    <title>team_img_bg</title>
    <desc>Created with Sketch.</desc>
    <defs></defs>
    <g id="Our-Team" stroke="none" stroke-width="1" fill="none" fill-rule="evenodd" transform="translate(-185.000000, -786.000000)">
        <path d="M424.041595,872 L438,872 C447.388841,872 455,879.611159 455,889 C455,898.388841 447.388841,906 438,906 L228,906 C218.611159,906 211,898.388841 211,889 C211,884.316158 212.894224,880.074736 215.958405,877 L202,877 C192.611159,877 185,869.388841 185,860 C185,850.611159 192.611159,843 202,843 L223.353593,843 C218.911169,839.933217 216,834.806579 216,829 C216,825.694878 216.943196,822.610051 218.575107,820 L202,820 C192.611159,820 185,812.388841 185,803 C185,793.611159 192.611159,786 202,786 L438,786 C447.388841,786 455,793.611159 455,803 C455,812.388841 447.388841,820 438,820 L379.424893,820 C381.056804,822.610051 382,825.694878 382,829 C382,834.806579 379.088831,839.933217 374.646407,843 L412,843 C421.388841,843 429,850.611159 429,860 C429,864.683842 427.105776,868.925264 424.041595,872 Z" id="team_img_bg" fill="#F9FBFE"></path>
    </g>
</svg>