<?xml version="1.0" encoding="UTF-8"?>
<svg width="18px" height="16px" viewBox="0 0 18 16" version="1.1" xmlns="http://www.w3.org/2000/svg" xmlns:xlink="http://www.w3.org/1999/xlink">
    <!-- Generator: Sketch 48.2 (47327) - http://www.bohemiancoding.com/sketch -->
    <title>twitter-logo-silhouette</title>
    <desc>Created with Sketch.</desc>
    <defs></defs>
    <g id="Homepage" stroke="none" stroke-width="1" fill="none" fill-rule="evenodd" transform="translate(-1216.000000, -6117.000000)">
        <path d="M1234,6118.89267 C1233.34052,6119.21273 1232.6262,6119.43431 1231.87954,6119.53126 C1232.64307,6119.03116 1233.22522,6118.2387 1233.50504,6117.2939 C1232.79072,6117.75707 1232.00047,6118.09406 1231.15397,6118.27409 C1230.48465,6117.4924 1229.52285,6117 1228.46262,6117 C1226.42512,6117 1224.7715,6118.80958 1224.7715,6121.03924 C1224.7715,6121.35776 1224.80525,6121.66397 1224.86571,6121.95942 C1221.7947,6121.79015 1219.07663,6120.18523 1217.25287,6117.7386 C1216.93368,6118.3341 1216.75228,6119.03116 1216.75228,6119.7713 C1216.75228,6121.17157 1217.40614,6122.41027 1218.39466,6123.13041 C1217.79002,6123.11348 1217.22475,6122.92729 1216.72557,6122.6257 L1216.72557,6122.67494 C1216.72557,6124.63378 1217.99953,6126.26794 1219.68549,6126.64185 C1219.37755,6126.7311 1219.04851,6126.7788 1218.71385,6126.7788 C1218.47762,6126.7788 1218.24701,6126.75572 1218.0164,6126.70802 C1218.48887,6128.31294 1219.85001,6129.47778 1221.46567,6129.51471 C1220.20155,6130.59646 1218.60839,6131.23966 1216.87884,6131.23966 C1216.58214,6131.23966 1216.29107,6131.2212 1216,6131.1858 C1217.63675,6132.33372 1219.57581,6133 1221.66253,6133 C1228.45137,6133 1232.16499,6126.84497 1232.16499,6121.50856 L1232.15374,6120.98538 C1232.87931,6120.4145 1233.50504,6119.70514 1234,6118.89267 Z" id="twitter-logo-silhouette" fill="#1DA1F2"></path>
    </g>
</svg>