<?xml version="1.0" encoding="UTF-8"?>
<svg width="24px" height="24px" viewBox="0 0 24 24" version="1.1" xmlns="http://www.w3.org/2000/svg" xmlns:xlink="http://www.w3.org/1999/xlink">
    <!-- Generator: Sketch 48.2 (47327) - http://www.bohemiancoding.com/sketch -->
    <title>icons/automation</title>
    <desc>Created with Sketch.</desc>
    <defs></defs>
    <g id="Symbols" stroke="none" stroke-width="1" fill="none" fill-rule="evenodd">
        <g id="icons/automation" fill="#5F12D7">
            <g id="003-computer" transform="translate(1.000000, 1.000000)">
                <path d="M19.2944037,2.07311315 C19.2944037,1.85028746 19.1136269,1.66944343 18.8907339,1.66944343 L2.17968196,1.66944343 C1.95685627,1.66944343 1.77601223,1.85028746 1.77601223,2.07311315 L1.77601223,13.9403976 C1.77601223,14.1632905 1.95685627,14.3440673 2.17968196,14.3440673 L18.8907339,14.3440673 C19.1136269,14.3440673 19.2944037,14.1632905 19.2944037,13.9403976 L19.2944037,2.07311315 Z M2.58335168,13.5367278 L2.58335168,11.7175902 L5.92600612,11.7175902 C6.08606116,12.1115046 6.47237309,12.390104 6.92307034,12.390104 C7.51680122,12.390104 7.99952294,11.907315 7.99952294,11.3136514 C7.99952294,10.7202569 7.51680122,10.2371988 6.92307034,10.2371988 C6.47237309,10.2371988 6.08579205,10.5162691 5.925737,10.9102508 L2.58335168,10.9102508 L2.58335168,10.011682 L8.77456881,10.011682 L9.78925994,11.0264404 C9.72904587,11.1607278 9.69493578,11.3086728 9.69493578,11.4647584 C9.69493578,12.058422 10.1779266,12.541211 10.7713884,12.541211 C11.365052,12.541211 11.847841,12.058422 11.847841,11.4647584 C11.847841,10.8713639 11.365052,10.3883058 10.7713884,10.3883058 C10.6297003,10.3883058 10.4948746,10.4164281 10.3708135,10.4663486 L9.22708257,9.32261774 C9.1513945,9.24692966 9.04866055,9.20434251 8.94168807,9.20434251 L2.58335168,9.20434251 L2.58335168,8.41045872 L13.6761284,8.41045872 C13.8361835,8.80437309 14.2224954,9.08324159 14.6732599,9.08324159 C15.2666544,9.08324159 15.7497125,8.60018349 15.7497125,8.00678899 C15.7497125,7.4130581 15.2666544,6.93033639 14.6732599,6.93033639 C14.2222936,6.93033639 13.8359144,7.20913761 13.6758593,7.60311927 L2.58335168,7.60311927 L2.58335168,6.80943731 L5.36255046,6.80943731 C5.46952294,6.80943731 5.57225688,6.76685015 5.64794495,6.69116208 L6.79221407,5.54689297 C6.91600612,5.59681346 7.05110092,5.62493578 7.1924526,5.62493578 C7.78611621,5.62493578 8.2689052,5.14221407 8.2689052,4.54848318 C8.2689052,3.95508869 7.78611621,3.47203058 7.1924526,3.47203058 C6.5990581,3.47203058 6.116,3.95508869 6.116,4.54848318 C6.116,4.70463609 6.15017737,4.85285015 6.21039144,4.9868685 L5.19543119,6.00209786 L2.58335168,6.00209786 L2.58335168,2.47678287 L18.4870642,2.47678287 L18.4870642,3.47203058 L12.2173333,3.47203058 C12.1103609,3.47203058 12.0076269,3.51461774 11.9319388,3.59030581 L10.7876697,4.73457492 C10.6638777,4.68465443 10.5287829,4.65653211 10.3874312,4.65653211 C9.79370031,4.65653211 9.31097859,5.1393211 9.31097859,5.73298471 C9.31097859,6.3263792 9.79370031,6.80943731 10.3874312,6.80943731 C10.9808257,6.80943731 11.4638838,6.3263792 11.4638838,5.73298471 C11.4638838,5.57662997 11.4297064,5.42861774 11.3694924,5.29459939 L12.3844526,4.27937003 L18.4870642,4.27937003 L18.4870642,11.0613578 L15.2792355,11.0613578 C15.1192477,10.6671743 14.7328685,10.3883058 14.2819021,10.3883058 C13.6885076,10.3883058 13.2054495,10.8713639 13.2054495,11.4647584 C13.2054495,12.058422 13.6885076,12.541211 14.2819021,12.541211 C14.7325994,12.541211 15.1189786,12.2626789 15.2790336,11.8686972 L18.4870642,11.8686972 L18.4870642,13.5367278 L2.58335168,13.5367278 Z M6.65395719,11.3136514 C6.65395719,11.1654373 6.77458716,11.0445382 6.92307034,11.0445382 C7.07155352,11.0445382 7.19218349,11.1654373 7.19218349,11.3136514 C7.19218349,11.4621346 7.07155352,11.5827645 6.92307034,11.5827645 C6.77458716,11.5827645 6.65395719,11.4621346 6.65395719,11.3136514 Z M10.7713884,11.1956453 C10.9198716,11.1956453 11.0405015,11.3165443 11.0405015,11.4647584 C11.0405015,11.6132416 10.9198716,11.7338716 10.7713884,11.7338716 C10.623107,11.7338716 10.5022752,11.6132416 10.5022752,11.4647584 C10.5022752,11.3165443 10.623107,11.1956453 10.7713884,11.1956453 Z M14.4041468,8.00678899 C14.4041468,7.85830581 14.5247768,7.73767584 14.6732599,7.73767584 C14.821474,7.73767584 14.9423731,7.85830581 14.9423731,8.00678899 C14.9423731,8.15500306 14.821474,8.27590214 14.6732599,8.27590214 C14.5247768,8.27590214 14.4041468,8.15500306 14.4041468,8.00678899 Z M6.92333945,4.54848318 C6.92333945,4.40026911 7.04423853,4.27937003 7.1924526,4.27937003 C7.34093578,4.27937003 7.46156575,4.40026911 7.46156575,4.54848318 C7.46156575,4.69696636 7.34093578,4.81759633 7.1924526,4.81759633 C7.04423853,4.81759633 6.92333945,4.69696636 6.92333945,4.54848318 Z M10.6565443,5.73298471 C10.6565443,5.88119878 10.5356453,6.00209786 10.3874312,6.00209786 C10.238948,6.00209786 10.118318,5.88119878 10.118318,5.73298471 C10.118318,5.58450153 10.238948,5.46387156 10.3874312,5.46387156 C10.5356453,5.46387156 10.6565443,5.58450153 10.6565443,5.73298471 Z M14.5510153,11.4647584 C14.5510153,11.6132416 14.4303853,11.7338716 14.2819021,11.7338716 C14.1336881,11.7338716 14.012789,11.6132416 14.012789,11.4647584 C14.012789,11.3165443 14.1336881,11.1956453 14.2819021,11.1956453 C14.4303853,11.1956453 14.5510153,11.3165443 14.5510153,11.4647584 Z" id="Fill-1"></path>
                <path d="M19.4678471,16.927419 L15.6214128,16.927419 L15.6214128,15.9587462 L19.2836391,15.9587462 C20.1797859,15.9587462 20.9090826,15.2294495 20.9090826,14.3330336 L20.9090826,1.68027523 C20.9090826,0.784061162 20.1797859,0.054764526 19.2836391,0.054764526 L1.78704587,0.054764526 C0.890629969,0.054764526 0.161333333,0.784061162 0.161333333,1.68027523 L0.161333333,14.3330336 C0.161333333,15.2294495 0.890629969,15.9587462 1.78704587,15.9587462 L5.44927217,15.9587462 L5.44927217,16.927419 L1.60256881,16.927419 C0.741406728,16.927419 0.0405015291,17.6283242 0.0405015291,18.4895535 L0.0405015291,20.3704526 C0.0405015291,21.2319511 0.741406728,21.9328563 1.60256881,21.9328563 L19.4678471,21.9328563 C20.3293456,21.9328563 21.0302508,21.2319511 21.0302508,20.3704526 L21.0302508,18.4895535 C21.0302508,17.6283242 20.3293456,16.927419 19.4678471,16.927419 Z M0.968672783,14.3330336 L0.968672783,1.68027523 C0.968672783,1.22924159 1.3358104,0.862103976 1.78704587,0.862103976 L19.2836391,0.862103976 C19.7348746,0.862103976 20.1017431,1.22924159 20.1017431,1.68027523 L20.1017431,14.3330336 C20.1017431,14.7842691 19.7348746,15.1514067 19.2836391,15.1514067 L1.78704587,15.1514067 C1.3358104,15.1514067 0.968672783,14.7842691 0.968672783,14.3330336 Z M6.25688073,16.927419 L14.8140734,16.927419 L14.8140734,15.9587462 L6.25688073,15.9587462 L6.25688073,16.927419 Z M20.2229113,20.3704526 C20.2229113,20.7867706 19.8841651,21.1255168 19.4678471,21.1255168 L1.60256881,21.1255168 C1.18631804,21.1255168 0.847840979,20.7867706 0.847840979,20.3704526 L0.847840979,18.4895535 C0.847840979,18.0735719 1.18631804,17.7347584 1.60256881,17.7347584 L19.4678471,17.7347584 C19.8841651,17.7347584 20.2229113,18.0735719 20.2229113,18.4895535 L20.2229113,20.3704526 Z" id="Fill-2"></path>
                <path d="M9.36480122,19.0265015 L2.42201835,19.0265015 C2.19919266,19.0265015 2.01834862,19.2070092 2.01834862,19.4301713 C2.01834862,19.6529969 2.19919266,19.833841 2.42201835,19.833841 L9.36480122,19.833841 C9.58769419,19.833841 9.76847095,19.6529969 9.76847095,19.4301713 C9.76847095,19.2070092 9.58769419,19.0265015 9.36480122,19.0265015 Z" id="Fill-3"></path>
                <path d="M18.7294006,19.0265015 L17.5183914,19.0265015 C17.2954985,19.0265015 17.1147217,19.2070092 17.1147217,19.4301713 C17.1147217,19.6529969 17.2954985,19.833841 17.5183914,19.833841 L18.7294006,19.833841 C18.9522263,19.833841 19.1330703,19.6529969 19.1330703,19.4301713 C19.1330703,19.2070092 18.9522263,19.0265015 18.7294006,19.0265015 Z" id="Fill-4"></path>
            </g>
        </g>
    </g>
</svg>