<?xml version="1.0" encoding="UTF-8"?>
<svg width="24px" height="24px" viewBox="0 0 24 24" version="1.1" xmlns="http://www.w3.org/2000/svg" xmlns:xlink="http://www.w3.org/1999/xlink">
    <!-- Generator: Sketch 48.2 (47327) - http://www.bohemiancoding.com/sketch -->
    <title>icons/intelligence</title>
    <desc>Created with Sketch.</desc>
    <defs></defs>
    <g id="Symbols" stroke="none" stroke-width="1" fill="none" fill-rule="evenodd">
        <g id="icons/intelligence" fill="#12CED7">
            <g id="002-idea" transform="translate(1.000000, 1.000000)">
                <path d="M0,18.0986297 C0,19.0764383 0.795491184,19.8719295 1.77329975,19.8719295 L6.02927456,19.8719295 L6.02927456,21.2906801 L4.61052393,21.2906801 L4.61052393,21.9998338 L17.3784484,21.9998338 L17.3784484,21.2906801 L15.9596977,21.2906801 L15.9596977,19.8719295 L20.2156725,19.8719295 C21.1934257,19.8719295 21.9889723,19.0764383 21.9889723,18.0986297 L21.9889723,17.0347053 L0,17.0347053 L0,18.0986297 Z M6.73864987,21.2906801 L15.2503224,21.2906801 L15.2503224,19.8719295 L6.73864987,19.8719295 L6.73864987,21.2906801 Z M0.709375315,17.7440806 L21.279597,17.7440806 L21.279597,18.0986297 C21.279597,18.6852594 20.8023023,19.1626096 20.2156725,19.1626096 L1.77329975,19.1626096 C1.18667003,19.1626096 0.709375315,18.6852594 0.709375315,18.0986297 L0.709375315,17.7440806 Z" id="Fill-1"></path>
                <path d="M0.709375315,5.33098237 C0.709375315,4.74435264 1.18667003,4.26683627 1.77329975,4.26683627 L7.44774811,4.26683627 L7.44774811,3.55768262 L1.77329975,3.55768262 C0.795491184,3.55768262 0,4.3531738 0,5.33098237 L0,16.32533 L0.709375315,16.32533 L0.709375315,5.33098237 Z" id="Fill-2"></path>
                <path d="M20.2156725,3.55768262 L14.5409471,3.55768262 L14.5409471,4.26683627 L20.2156725,4.26683627 C20.8023023,4.26683627 21.279597,4.74435264 21.279597,5.33098237 L21.279597,16.32533 L21.9889723,16.32533 L21.9889723,5.33098237 C21.9889723,4.3531738 21.1934257,3.55768262 20.2156725,3.55768262 Z" id="Fill-3"></path>
                <polygon id="Fill-4" points="17.7329975 15.6160101 4.25597481 15.6160101 4.25597481 5.68553149 7.44774811 5.68553149 7.44774811 4.97621159 3.5465995 4.97621159 3.5465995 16.32533 18.4423728 16.32533 18.4423728 4.97621159 14.5409471 4.97621159 14.5409471 5.68553149 17.7329975 5.68553149"></polygon>
                <path d="M9.57587406,6.65059446 L9.57587406,7.81343577 L12.4130982,7.81343577 L12.4130982,6.77007053 C12.4130982,6.02539547 12.6947204,5.27384887 13.2274307,4.59628212 C13.622932,4.09321914 13.8318489,3.48885642 13.8318489,2.8483073 C13.8318489,2.08157683 13.5307204,1.3629471 12.9841562,0.825193955 C12.4375365,0.287717884 11.7163023,0.00393450882 10.9465239,0.0113047859 C9.46310327,0.035743073 8.21253904,1.2618136 8.15928463,2.7439597 C8.13440302,3.43709824 8.36254912,4.11228212 8.80199496,4.64610076 C9.30810579,5.26126952 9.57587406,5.95440806 9.57587406,6.65059446 Z M11.7037229,6.77007053 L11.7037229,7.10428212 L10.2852494,7.10428212 L10.2852494,6.74951134 L11.7048312,6.74951134 C11.7048312,6.75621662 11.7037229,6.76292191 11.7037229,6.77007053 Z M8.86821662,2.7695063 C8.90806045,1.65842317 9.84580353,0.739078086 10.9582166,0.720680101 C11.5297179,0.71070529 12.0765038,0.927823678 12.4864685,1.33108312 C12.8964887,1.73439798 13.1224736,2.27292695 13.1224736,2.8483073 C13.1224736,3.32842821 12.9659798,3.78106297 12.6698388,4.15772292 C12.2085592,4.74457431 11.9076524,5.38490176 11.7779798,6.04013602 L11.3491738,6.04013602 L11.3491738,4.26683627 L10.6397985,4.26683627 L10.6397985,6.04013602 L10.2293904,6.04013602 C10.1137935,5.39116373 9.81593451,4.7623073 9.34922418,4.19496222 C9.02,3.79513854 8.84920907,3.28902771 8.86821662,2.7695063 Z" id="Fill-5"></path>
                <path d="M12.0585491,8.16820655 L11.3491738,8.16820655 C11.3491738,8.36371285 11.1898539,8.52281108 10.9943476,8.52281108 C10.7991184,8.52281108 10.6397985,8.36371285 10.6397985,8.16820655 L9.93042317,8.16820655 C9.93042317,8.75483627 10.4077179,9.23213098 10.9943476,9.23213098 C11.5809773,9.23213098 12.0585491,8.75483627 12.0585491,8.16820655 Z" id="Fill-6"></path>
                <polygon id="Fill-7" points="10.6397985 3.55768262 11.3491738 3.55768262 11.3491738 2.8483073 10.6397985 2.8483073"></polygon>
                <path d="M8.96757683,7.95607557 C8.44522922,8.48945088 8.15712343,9.19450378 8.15712343,9.9415063 C8.15712343,11.5059446 9.42996474,12.7787305 10.9943476,12.7787305 C12.5587859,12.7787305 13.8318489,11.5059446 13.8318489,9.9415063 C13.8318489,9.1732796 13.5296121,8.45376322 12.98133,7.91601008 L12.4847506,8.42256423 C12.8958237,8.82565743 13.1224736,9.36507305 13.1224736,9.9415063 C13.1224736,11.1149874 12.1680504,12.0694106 10.9943476,12.0694106 C9.82092191,12.0694106 8.86649874,11.1149874 8.86649874,9.9415063 C8.86649874,9.38108816 9.08212091,8.85225693 9.47435264,8.45221159 L8.96757683,7.95607557 Z" id="Fill-8"></path>
                <path d="M15.9596977,11.2825088 L15.9596977,8.60050378 L14.9357834,8.34442821 C14.9035315,8.26435264 14.8685088,8.18510831 14.8308262,8.10719395 L14.1909421,8.41369773 C14.2448615,8.52646851 14.2935718,8.64228715 14.3353552,8.76109824 L14.3987506,8.94142065 L15.2503224,9.15421662 L15.2503224,10.7281864 L14.3987506,10.940927 L14.3353552,11.1210277 C14.2935718,11.2403375 14.2452494,11.3561562 14.1909421,11.4693703 L14.1090932,11.6409924 L14.5606751,12.3936474 L13.447597,13.5069471 L12.6947204,13.0554207 L12.5226549,13.1376574 C12.4098287,13.1915768 12.2936222,13.2398438 12.1743123,13.2820151 L11.9942116,13.346131 L11.781471,14.1974811 L10.2075013,14.1974811 L9.99470529,13.346131 L9.81526952,13.2826801 C9.69601511,13.2404534 9.57975315,13.1921864 9.46698237,13.1383224 L9.29486146,13.0560302 L8.5420403,13.5076121 L7.23323426,12.1988615 L6.73172292,12.7003728 L8.4320403,14.4005239 L9.33753149,13.8580605 C9.35764736,13.8660957 9.37798489,13.8747406 9.39815617,13.8827204 L9.65356675,14.9066348 L12.3354055,14.9066348 L12.5914811,13.8824987 C12.6120403,13.8742972 12.6319345,13.8658741 12.6520504,13.8576171 L13.5575416,14.4003023 L15.4535869,12.5042569 L14.9106801,11.5987657 C14.9191587,11.5786499 14.9275819,11.5583123 14.9357834,11.5381965 L15.9596977,11.2825088 Z" id="Fill-9"></path>
                <path d="M6.53560705,7.37897733 L7.0786801,8.28446851 C7.07025693,8.30480605 7.06161209,8.32492191 7.05335516,8.3450932 L6.02927456,8.60050378 L6.02927456,11.2825088 L7.0531335,11.5386398 C7.08538539,11.6180504 7.12046348,11.697073 7.15770277,11.7754307 L7.79803023,11.4699798 C7.74366751,11.3565441 7.6954005,11.2409471 7.65361713,11.1216927 L7.59,10.9415919 L6.73864987,10.7283526 L6.73864987,9.15443829 L7.59,8.94164232 L7.65361713,8.76154156 C7.6954005,8.64228715 7.74366751,8.52669018 7.79803023,8.4139194 L7.880267,8.24202015 L7.42874055,7.48892191 L8.73749118,6.18039295 L8.23592443,5.6788262 L6.53560705,7.37897733 Z" id="Fill-10"></path>
                <polygon id="Fill-11" points="14.7555164 7.68503778 13.2510378 6.18061461 13.7526045 5.67904786 15.2570277 7.18352645"></polygon>
            </g>
        </g>
    </g>
</svg>