<?xml version="1.0" encoding="UTF-8"?>
<svg width="24px" height="24px" viewBox="0 0 24 24" version="1.1" xmlns="http://www.w3.org/2000/svg" xmlns:xlink="http://www.w3.org/1999/xlink">
    <!-- Generator: Sketch 48.2 (47327) - http://www.bohemiancoding.com/sketch -->
    <title>icons/yield-management</title>
    <desc>Created with Sketch.</desc>
    <defs></defs>
    <g id="Symbols" stroke="none" stroke-width="1" fill="none" fill-rule="evenodd">
        <g id="icons/yield-management" fill="#D79E12">
            <g id="001-business" transform="translate(2.000000, 1.000000)">
                <path d="M16.077236,3.62282725 C15.4461411,3.62282725 14.9167494,4.06550365 14.7825012,4.65661314 L13.3299124,5.01958637 C13.086146,4.71726034 12.7133236,4.523382 12.2955377,4.523382 C11.5632749,4.523382 10.9676156,5.11909489 10.9676156,5.85135766 C10.9676156,6.02345012 11.0006423,6.18778102 11.0606472,6.33878345 L9.23860827,8.16082238 C9.03011679,8.02427251 8.78110462,7.94478345 8.51389294,7.94478345 C8.0250219,7.94478345 7.59744039,8.21054988 7.36678832,8.60489051 L6.05808273,7.81958151 C6.05952798,7.79404866 6.06038443,7.76814112 6.06038443,7.74218005 C6.06038443,7.0099708 5.46467153,6.4140438 4.73240876,6.4140438 C4.00014599,6.4140438 3.40427251,7.0099708 3.40427251,7.74218005 C3.40427251,8.47444282 4.00014599,9.07015572 4.73240876,9.07015572 C5.19365937,9.07015572 5.60057908,8.8336691 5.83872506,8.47567397 L7.1863455,9.28405353 C7.19239416,10.0112847 7.78537713,10.6009489 8.51410706,10.6009489 C9.2463163,10.6009489 9.8420292,10.0050219 9.8420292,9.27275912 C9.8420292,9.05259854 9.78785888,8.84474939 9.69252555,8.66179075 L11.4667105,6.88781995 C11.6939903,7.06997567 11.9821314,7.17954745 12.2955377,7.17954745 C13.0280146,7.17954745 13.6237275,6.58362044 13.6237275,5.85135766 C13.6237275,5.78171776 13.6182676,5.71314842 13.6078297,5.64623844 L14.8090511,5.346 C14.9776107,5.88588321 15.482326,6.27893917 16.077236,6.27893917 C16.8094453,6.27893917 17.4051582,5.68322628 17.4051582,4.95101703 C17.4051582,4.21854015 16.8094453,3.62282725 16.077236,3.62282725 Z M4.73240876,8.3950073 C4.37237956,8.3950073 4.07963504,8.10204866 4.07963504,7.74218005 C4.07963504,7.38215085 4.37237956,7.08940633 4.73240876,7.08940633 C5.09227737,7.08940633 5.38518248,7.38215085 5.38518248,7.74218005 C5.38518248,8.10204866 5.09227737,8.3950073 4.73240876,8.3950073 Z M8.51389294,9.92553285 C8.15402433,9.92553285 7.86106569,9.63284185 7.86106569,9.27275912 C7.86106569,8.91289051 8.15402433,8.6199854 8.51389294,8.6199854 C8.87392214,8.6199854 9.16666667,8.91289051 9.16666667,9.27275912 C9.16666667,9.63284185 8.87392214,9.92553285 8.51389294,9.92553285 Z M12.2955377,6.50413139 C11.9356691,6.50413139 11.642764,6.21122628 11.642764,5.85135766 C11.642764,5.49148905 11.9356691,5.19858394 12.2955377,5.19858394 C12.6554063,5.19858394 12.9483114,5.49148905 12.9483114,5.85135766 C12.9483114,6.21122628 12.6554063,6.50413139 12.2955377,6.50413139 Z M16.077236,5.60379075 C15.7171533,5.60379075 15.4244088,5.31083212 15.4244088,4.95101703 C15.4244088,4.59114842 15.7171533,4.29818978 16.077236,4.29818978 C16.4370511,4.29818978 16.7300097,4.59114842 16.7300097,4.95101703 C16.7300097,5.31083212 16.4370511,5.60379075 16.077236,5.60379075 Z" id="Fill-1"></path>
                <g id="Group-5">
                    <path d="M18.1028954,13.2570608 L17.1350024,13.2570608 L17.1350024,7.29200973 C17.1350024,7.10551825 16.9840535,6.95435523 16.7973479,6.95435523 L15.5369246,6.95435523 C15.3503796,6.95435523 15.1992165,7.10551825 15.1992165,7.29200973 L15.1992165,13.2570608 L13.2933528,13.2570608 L13.2933528,8.37241849 C13.2933528,8.18587348 13.1423504,8.03471046 12.9558589,8.03471046 L11.6952214,8.03471046 C11.5087299,8.03471046 11.3575669,8.18587348 11.3575669,8.37241849 L11.3575669,13.2570608 L9.45164964,13.2570608 L9.45164964,11.4337372 C9.45164964,11.2472457 9.30070073,11.0960827 9.11420925,11.0960827 L7.85357178,11.0960827 C7.66702676,11.0960827 7.51586375,11.2472457 7.51586375,11.4337372 L7.51586375,13.2570608 L5.61021411,13.2570608 L5.61021411,10.5333966 C5.61021411,10.3468516 5.45899757,10.1956886 5.27250608,10.1956886 L4.01208273,10.1956886 C3.82559124,10.1956886 3.67442822,10.3468516 3.67442822,10.5333966 L3.67442822,13.2570608 L2.70648175,13.2570608 C2.51999027,13.2570608 2.36882725,13.4082238 2.36882725,13.5947153 C2.36882725,13.7812603 2.51999027,13.9324234 2.70648175,13.9324234 L18.1028954,13.9324234 C18.2894404,13.9324234 18.4406034,13.7812603 18.4406034,13.5947153 C18.4406034,13.4082238 18.2894404,13.2570608 18.1028954,13.2570608 Z M4.34979075,13.2570608 L4.93501217,13.2570608 L4.93501217,10.8710511 L4.34979075,10.8710511 L4.34979075,13.2570608 Z M8.19122628,13.2570608 L8.77650122,13.2570608 L8.77650122,11.7714453 L8.19122628,11.7714453 L8.19122628,13.2570608 Z M12.0329294,13.2570608 L12.6181509,13.2570608 L12.6181509,8.71007299 L12.0329294,8.71007299 L12.0329294,13.2570608 Z M15.8745791,13.2570608 L16.459854,13.2570608 L16.459854,7.62971776 L15.8745791,7.62971776 L15.8745791,13.2570608 Z" id="Fill-2"></path>
                    <path d="M20.5114404,14.3374161 L19.7687397,14.3374161 L19.7687397,1.70963017 C19.7687397,0.778725061 19.0114258,0.0214111922 18.0805207,0.0214111922 L2.77403406,0.0214111922 C1.84318248,0.0214111922 1.08581509,0.778725061 1.08581509,1.70963017 L1.08581509,10.4432555 C1.08581509,10.6299611 1.2369781,10.7809635 1.42352311,10.7809635 C1.6100146,10.7809635 1.76117762,10.6299611 1.76117762,10.4432555 L1.76117762,3.14273479 L15.5595134,3.14273479 C15.7460049,3.14273479 15.8971679,2.99157178 15.8971679,2.80508029 C15.8971679,2.61858881 15.7460049,2.46737226 15.5595134,2.46737226 L1.7609635,2.46737226 L1.7609635,1.70963017 C1.7609635,1.15111922 2.21557664,0.696773723 2.77403406,0.696773723 L18.0805207,0.696773723 C18.6390316,0.696773723 19.0933771,1.15111922 19.0933771,1.70963017 L19.0933771,2.46737226 L17.3601946,2.46737226 C17.1737032,2.46737226 17.0225401,2.61858881 17.0225401,2.80508029 C17.0225401,2.99157178 17.1737032,3.14273479 17.3601946,3.14273479 L19.0933771,3.14273479 L19.0933771,14.3374161 L1.7609635,14.3374161 L1.7609635,12.0190122 C1.7609635,11.8324672 1.6100146,11.6813041 1.42352311,11.6813041 C1.23676399,11.6813041 1.08581509,11.8324672 1.08581509,12.0190122 L1.08581509,14.3374161 L0.342900243,14.3374161 C0.156408759,14.3374161 0.00524574209,14.4885791 0.00524574209,14.6751241 L0.00524574209,16.1157762 C0.00524574209,16.3022676 0.156408759,16.4534307 0.342900243,16.4534307 L10.0895961,16.4534307 L10.0895961,18.6736107 L7.22483212,21.3619465 C6.90783942,21.6596691 7.36973236,22.1518589 7.68709976,21.8543504 L10.0895961,19.5996983 L10.0895961,21.428 C10.0895961,21.6144915 10.2407591,21.765708 10.4273041,21.765708 C10.6137956,21.765708 10.7649586,21.6144915 10.7649586,21.428 L10.7649586,19.6668224 L13.1712019,21.8576691 C13.4909246,22.1487543 13.9484282,21.6521752 13.6258151,21.3583601 L10.7649586,18.7536886 L10.7649586,16.4534307 L20.5116545,16.4534307 C20.6981995,16.4534307 20.8491484,16.3022676 20.8491484,16.1157762 L20.8491484,14.6751241 C20.8491484,14.4885791 20.6979854,14.3374161 20.5114404,14.3374161 Z M0.680608273,15.7780681 L20.174,15.7780681 L20.174,15.0127786 L0.680608273,15.0127786 L0.680608273,15.7780681 Z" id="Fill-4"></path>
                </g>
            </g>
        </g>
    </g>
</svg>